<?xml version="1.0" standalone="no"?>
<!DOCTYPE svg PUBLIC "-//W3C//DTD SVG 20010904//EN"
 "http://www.w3.org/TR/2001/REC-SVG-20010904/DTD/svg10.dtd">
<svg version="1.0" xmlns="http://www.w3.org/2000/svg"
 width="512.000000pt" height="512.000000pt" viewBox="0 0 512.000000 512.000000"
 preserveAspectRatio="xMidYMid meet">
<metadata>
Created by potrace 1.14, written by Peter Selinger 2001-2017
</metadata>
<g transform="translate(0.000000,512.000000) scale(0.100000,-0.100000)"
fill="#000000" stroke="none">
<path d="M3273 5100 c-96 -25 -173 -62 -367 -174 -88 -52 -451 -262 -806 -466
-355 -205 -679 -397 -721 -427 -339 -243 -618 -716 -677 -1148 -9 -67 -9
-2056 0 -2120 9 -59 36 -143 68 -205 20 -40 142 -170 159 -170 4 0 94 -50 200
-110 125 -71 210 -127 242 -158 175 -172 428 -158 759 39 43 26 402 234 450
261 19 11 139 80 265 153 127 73 245 141 262 151 18 11 130 75 249 144 119 69
235 136 258 149 75 43 169 114 244 185 81 77 222 238 222 254 0 6 4 12 8 14
18 7 98 142 162 273 71 144 131 314 150 420 5 33 13 71 17 85 10 39 12 2027 2
2099 -18 131 -37 189 -86 273 -61 105 -150 172 -267 202 -32 9 -80 29 -107 46
-27 16 -51 30 -53 30 -2 0 -34 18 -70 40 -36 22 -68 40 -71 40 -2 0 -35 19
-72 42 -119 72 -169 90 -263 94 -60 2 -107 -3 -157 -16z"/>
</g>
</svg>
